<svg width="195" height="185" fill="none" xmlns="http://www.w3.org/2000/svg"><path d="M104 106.5l.996.084-.996-.084zm-71 11l-.181-.983-.013.002-.012.002.206.979zm-33 12l11.54.385-5.436-10.187L0 129.5zm8.303-2.956a132.85 132.85 0 015.39-2.216l-.72-1.866a134.125 134.125 0 00-5.472 2.25l.802 1.832zm10.871-4.199a131.518 131.518 0 015.561-1.744l-.555-1.922c-1.95.564-3.838 1.16-5.646 1.771l.64 1.895zm11.193-3.23c.937-.223 1.884-.435 2.839-.636l-.412-1.958c-.973.205-1.936.422-2.89.649l.463 1.945zm2.814-.632c1.21-.223 2.409-.435 3.598-.636l-.334-1.972c-1.199.203-2.407.417-3.626.642l.362 1.966zm10.72-1.735c2.428-.337 4.81-.628 7.148-.875l-.21-1.989c-2.36.249-4.764.543-7.214.883l.275 1.981zm14.322-1.509a189.21 189.21 0 017.195-.37l-.065-1.999c-2.37.076-4.794.2-7.27.374l.14 1.995zm14.398-.454c2.463.024 4.862.102 7.198.23l.11-1.997c-2.367-.13-4.797-.209-7.289-.232l-.019 1.999zm14.37.802c2.446.257 4.818.572 7.115.941l.318-1.974a133.57 133.57 0 00-7.225-.956l-.209 1.989zm14.151 2.285c2.416.539 4.739 1.139 6.971 1.795l.563-1.919a110.025 110.025 0 00-7.099-1.828l-.435 1.952zm13.755 4.055a88.626 88.626 0 016.611 2.786l.852-1.809a90.095 90.095 0 00-6.76-2.849l-.703 1.872zm12.927 6.111a70.914 70.914 0 015.967 3.909l1.18-1.615a72.849 72.849 0 00-6.135-4.019l-1.012 1.725zm11.479 8.429a54.96 54.96 0 014.91 5.138l1.534-1.282a56.713 56.713 0 00-5.089-5.327l-1.355 1.471zm9.044 10.906c1.298 2.151 2.318 4.275 3.073 6.326l1.877-.691c-.802-2.177-1.878-4.416-3.237-6.668l-1.713 1.033zm4.658 13.108a18.611 18.611 0 010 3.422l1.99.194c.118-1.206.119-2.475.002-3.793l-1.992.177zm0 3.422a12.912 12.912 0 01-.713 3.077l1.884.673a14.9 14.9 0 00.819-3.556l-1.99-.194zm-3.935 8.714a27.544 27.544 0 01-4.694 4.624l1.226 1.58a29.498 29.498 0 005.036-4.963l-1.568-1.241zm-10.339 8.031c-2.014.903-4.128 1.544-6.274 1.845l.278 1.981c2.352-.33 4.648-1.029 6.815-2.002l-.819-1.824zm-12.73 1.656a17.55 17.55 0 01-5.941-2.474l-1.088 1.678a19.535 19.535 0 006.615 2.752l.414-1.956zm-10.774-6.822c-1.291-1.542-2.519-3.37-3.655-5.516l-1.767.935c1.195 2.258 2.498 4.204 3.889 5.865l1.533-1.284zm-6.326-11.665a65.276 65.276 0 01-1.903-6.443l-1.943.472a67.11 67.11 0 001.962 6.641l1.884-.67zm-3.228-13.048a113.063 113.063 0 01-.878-6.716l-1.99.202c.244 2.404.544 4.681.894 6.835l1.974-.321zm-1.396-13.484c-.115-2.173-.19-4.439-.222-6.802l-2 .027c.032 2.388.108 4.681.225 6.881l1.997-.106zm-.198-13.639c.044-2.203.121-4.481.235-6.835l-1.998-.097c-.114 2.373-.193 4.67-.237 6.893l2 .039zm.644-13.571c.083-1.147.174-2.311.273-3.491l-1.993-.168a334.508 334.508 0 00-.275 3.514l1.995.145zm.273-3.491c.098-1.165.21-2.317.334-3.457l-1.988-.217a146.713 146.713 0 00-.339 3.506l1.993.168zm1.248-10.25c.371-2.296.796-4.539 1.273-6.73l-1.954-.425a127.517 127.517 0 00-1.293 6.838l1.974.318zm2.923-13.376a111.895 111.895 0 012.044-6.535l-1.889-.656c-.75 2.16-1.445 4.376-2.081 6.652l1.926.539zm4.496-12.928a102.54 102.54 0 012.865-6.217l-1.787-.897a103.769 103.769 0 00-2.921 6.338l1.843.776zm6.144-12.223a98.01 98.01 0 013.685-5.763l-1.646-1.136a100.211 100.211 0 00-3.761 5.88l1.722 1.019zm7.762-11.254a98.952 98.952 0 014.448-5.193l-1.473-1.353a100.655 100.655 0 00-4.538 5.298l1.563 1.248zm9.242-10.07a103.7 103.7 0 015.117-4.55l-1.279-1.538a105.454 105.454 0 00-5.216 4.64l1.378 1.449zm10.521-8.761a112.094 112.094 0 015.655-3.866l-1.078-1.684a113.91 113.91 0 00-5.756 3.934l1.179 1.616zm11.531-7.388a123.374 123.374 0 016.071-3.184l-.88-1.796a125.32 125.32 0 00-6.169 3.236l.978 1.744zm12.313-6.038a135.723 135.723 0 016.38-2.525l-.689-1.878a137 137 0 00-6.474 2.563l.783 1.84zm12.871-4.729a145.433 145.433 0 016.61-1.895l-.506-1.935a147.37 147.37 0 00-6.701 1.921l.597 1.91zm13.289-3.476c2.284-.485 4.536-.907 6.748-1.27l-.324-1.974a150.36 150.36 0 00-6.839 1.288l.415 1.956zm13.55-2.224a137.09 137.09 0 016.839-.624l-.131-1.995c-2.24.147-4.558.355-6.939.632l.231 1.987zm13.675-.886c1.171-.012 2.311-.005 3.417.019l.044-2a110.024 110.024 0 00-3.481-.02l.02 2z" fill="#67A8D2"/></svg>