<svg width="173" height="170" fill="none" xmlns="http://www.w3.org/2000/svg"><path d="M20.5 99.5l.116-.993-.116.993zm26.5 40l-.603.797.603-.797zM173 163l-10.239-5.339.496 11.536L173 163zM-24.993.881a136.98 136.98 0 00-.355 3.318l1.991.19c.107-1.126.224-2.218.35-3.27L-24.993.88zm-.841 9.983a170.638 170.638 0 00-.216 6.682l2 .026c.029-2.27.102-4.478.213-6.604l-1.997-.104zm-.173 13.358c.056 2.19.155 4.42.302 6.672l1.996-.13a166.914 166.914 0 01-.299-6.593l-2 .051zm.877 13.334c.238 2.205.525 4.42.867 6.632l1.976-.305a143.69 143.69 0 01-.855-6.541l-1.988.214zm2.055 13.22c.455 2.192.97 4.369 1.548 6.518l1.931-.52a112.9 112.9 0 01-1.52-6.405l-1.959.406zm3.504 12.932a84.726 84.726 0 002.427 6.27l1.834-.797a82.703 82.703 0 01-2.37-6.122l-1.89.65zm5.391 12.317a60.252 60.252 0 003.578 5.721l1.632-1.156a58.253 58.253 0 01-3.459-5.532l-1.75.967zm7.836 10.98a44.979 44.979 0 004.974 4.617l1.244-1.565a42.988 42.988 0 01-4.752-4.413l-1.466 1.36zm10.617 8.4a41.132 41.132 0 006.188 2.8l.672-1.883a39.128 39.128 0 01-5.887-2.665l-.973 1.748zm12.744 4.573a47.35 47.35 0 003.367.515l.232-1.986a45.824 45.824 0 01-3.225-.494l-.374 1.965zm3.367.515c1.334.156 2.628.283 3.883.38l.154-1.995a97.078 97.078 0 01-3.805-.371l-.232 1.986zm11.63.612c2.823-.064 5.399-.306 7.743-.703l-.334-1.972c-2.239.38-4.718.613-7.455.676l.045 1.999zm15.29-2.803c2.713-1.12 4.952-2.534 6.764-4.17l-1.34-1.485c-1.627 1.47-3.666 2.766-6.187 3.806l.763 1.849zM58.74 87.627c1.073-2.498 1.577-5.155 1.644-7.807l-2-.05c-.06 2.434-.523 4.834-1.482 7.067l1.838.79zm.651-15.657a29.725 29.725 0 00-3.066-7.279l-1.72 1.02a27.724 27.724 0 012.857 6.785l1.93-.526zm-8.327-13.31c-1.25-.887-2.587-1.49-3.945-1.653l-.238 1.986c.937.112 1.963.544 3.026 1.298l1.157-1.631zm-3.945-1.653c-1.27-.152-2.57.171-3.831.817l.912 1.78c1.016-.52 1.913-.703 2.68-.611l.24-1.986zm-9.216 5.536c-1.331 1.64-2.63 3.6-3.847 5.811l1.753.964c1.168-2.125 2.403-3.981 3.647-5.515l-1.553-1.26zM31.12 74.612a65.457 65.457 0 00-2.208 6.541l1.925.54a63.421 63.421 0 012.141-6.34l-1.858-.741zM27.39 87.87a66.408 66.408 0 00-.83 6.842l1.995.136c.154-2.255.43-4.474.805-6.636l-1.97-.342zm-.924 13.741c.098 2.28.326 4.578.704 6.872l1.973-.325a55.332 55.332 0 01-.678-6.632l-1.999.085zm2.268 13.612a49.346 49.346 0 002.466 6.473l1.814-.842a47.414 47.414 0 01-2.367-6.211l-1.913.58zm5.83 12.527a48.184 48.184 0 004.2 5.501l1.5-1.324a46.17 46.17 0 01-4.027-5.273l-1.673 1.096zm9.13 10.364a54.251 54.251 0 002.703 2.182l1.206-1.594A53.127 53.127 0 0145 136.6l-1.306 1.515zm2.703 2.182a59.222 59.222 0 003 2.124l1.105-1.667a57.388 57.388 0 01-2.899-2.051l-1.206 1.594zm9.313 5.844a92.932 92.932 0 006.596 3.128l.788-1.838a90.877 90.877 0 01-6.454-3.061l-.93 1.771zm13.382 5.781c2.25.802 4.56 1.556 6.921 2.264l.575-1.916a140.356 140.356 0 01-6.824-2.232l-.672 1.884zm13.936 4.203c2.324.59 4.683 1.142 7.068 1.658l.422-1.955a198.837 198.837 0 01-6.997-1.642l-.493 1.939zm14.191 3.077c2.373.436 4.761.838 7.156 1.209l.306-1.977a257.396 257.396 0 01-7.101-1.199l-.361 1.967zm14.339 2.229c2.406.312 4.809.594 7.2.849l.212-1.988a325.859 325.859 0 01-7.155-.844l-.257 1.983zm14.422 1.543c2.435.208 4.847.39 7.228.546l.131-1.995a369.671 369.671 0 01-7.188-.544l-.171 1.993zm14.461.953c2.469.115 4.891.205 7.251.271l.056-2a378.39 378.39 0 01-7.214-.269l-.093 1.998zm14.502.405c2.519.022 4.943.018 7.252-.009l-.023-2c-2.296.027-4.706.031-7.211.009l-.018 2z" fill="#67A8D2"/></svg>