<svg width="53" height="56" fill="none" xmlns="http://www.w3.org/2000/svg"><path fill-rule="evenodd" clip-rule="evenodd" d="M8.602 29.988V2.41c0-.774.446-2.324 2.23-2.324h30.745c.796-.051 2.389.341 2.389 2.324v27.578l7.168.155c.531.052 1.593.527 1.593 2.014 0 1.86-.955 1.86-3.186 3.874-1.784 1.611-14.867 13.169-21.186 18.747-.372.31-1.306.93-2.071.93-.956 0-1.434-.466-2.07-.93-.51-.372-14.338-12.653-21.187-18.747C.637 33.905 0 33.24 0 32.157c0-1.394.796-2.014 1.912-2.014.892 0 4.832-.103 6.69-.155zm4.46 4.493V4.424h26.444v30.057h5.256L26.284 50.75 7.646 34.481h5.416z" fill="#1B567C"/><path d="M29.3 29.228c0-.794-.228-1.424-.686-1.889-.448-.474-1.215-.91-2.3-1.307a28.888 28.888 0 01-2.808-1.176 9.47 9.47 0 01-2.03-1.351 5.659 5.659 0 01-1.315-1.801c-.309-.688-.463-1.506-.463-2.455 0-1.636.538-2.978 1.613-4.023 1.075-1.046 2.504-1.656 4.286-1.83v-3.109h2.39v3.152c1.762.242 3.14.959 4.136 2.15.996 1.181 1.494 2.716 1.494 4.604H29.3c0-1.162-.25-2.029-.747-2.6-.488-.58-1.145-.871-1.971-.871-.817 0-1.449.227-1.897.682-.448.446-.672 1.066-.672 1.86 0 .735.22 1.326.657 1.772.438.445 1.25.9 2.434 1.365 1.195.465 2.176.905 2.942 1.322.767.406 1.414.871 1.942 1.394.527.513.93 1.104 1.21 1.772.278.659.418 1.428.418 2.31 0 1.646-.528 2.982-1.583 4.008-1.056 1.027-2.51 1.632-4.361 1.816v2.89h-2.375v-2.875c-2.04-.213-3.624-.915-4.749-2.106-1.115-1.201-1.672-2.794-1.672-4.78h4.316c0 1.153.278 2.04.836 2.659.567.61 1.379.915 2.434.915.876 0 1.568-.223 2.076-.668.508-.455.762-1.065.762-1.83z" fill="#1B567C"/></svg>