<svg width="57" height="57" fill="none" xmlns="http://www.w3.org/2000/svg"><path fill-rule="evenodd" clip-rule="evenodd" d="M40.028 33.931l3.523-3.426 3.522 3.426h6.084v5.607L57 43.275l-3.843 4.049v5.294h-5.764l-3.842 3.738-3.523-3.738h-5.764v-5.606l-3.843-3.737 3.843-3.737V33.93h5.764zm3.523 1.869l-2.242 2.18h-3.202v3.115l-2.562 2.18 2.562 2.492v3.114h3.202l2.242 2.18 2.241-2.18h3.523v-3.114l2.241-2.492-2.241-2.18V37.98h-3.523l-2.241-2.18z" fill="#1B567C"/><path fill-rule="evenodd" clip-rule="evenodd" d="M15.05 8.08H5.125C3.416 8.08 0 8.954 0 12.442v30.834c0 2.18.64 5.606 5.124 5.606H30.42l-3.52-3.738H5.124c-1.281 0-1.281-1.246-1.281-2.492V13.998c0-.934.32-2.18 1.28-2.18h42.59c.64.104 1.922.81 1.922 2.803v15.573h3.522v-17.13c0-1.246-1.28-4.983-5.443-4.983h-9.607V5.9c0-1.246-1.601-4.984-5.124-4.984h-13.13c-1.92 0-4.802 1.87-4.802 5.607V8.08zm19.214 0h-15.37c0-3.114 1.6-3.425 3.522-3.425h8.646c3.33 0 3.522 2.284 3.202 3.426z" fill="#1B567C"/><path d="M30.421 30.505H3.843v3.426H30.42v-3.426zm-7.685-7.475v3.426h7.685v-3.425h-7.685z" fill="#1B567C"/></svg>