<svg width="39" height="54" fill="none" xmlns="http://www.w3.org/2000/svg"><path d="M19.432 29.275c-2.05 0-3.713 1.61-3.713 3.594 0 1.342.759 2.511 1.884 3.129.54.296 1.164.466 1.83.466a3.8 3.8 0 001.83-.466c1.124-.618 1.883-1.787 1.883-3.129 0-1.985-1.663-3.594-3.714-3.594z" fill="#1B567C"/><path d="M19.432 36.464a3.8 3.8 0 01-1.83-.466l-.753 5.623h5.06l-.647-5.623a3.791 3.791 0 01-1.83.466z" fill="#1B567C"/><path fill-rule="evenodd" clip-rule="evenodd" d="M14.804 0c-2.78.382-8.342 2.917-8.342 10.002v8.855C4.31 18.614.004 19.21.004 23.545v24.222c-.072 1.858.818 5.574 4.951 5.574h27.071c1.668 0 6.727-.938 6.889-4.896.161-3.96.053-22.087 0-24.9-.054-2.813-3.283-4.688-6.459-4.688v-8.855C32.456 4.583 27.72 0 24.008 0h-9.203zM9.799 10.002v8.855H29.28v-8.855c0-2.71-2.314-6.824-5.274-6.824-3.767 0-4.036-.157-9.203 0-4.133.125-5.059 4.6-5.005 6.824zM4.266 23.114h29.859v26.078H4.265V23.115z" fill="#1B567C"/></svg>