<svg width="151" height="39" fill="none" xmlns="http://www.w3.org/2000/svg"><circle cx="3.5" cy="3.5" r="3.5" fill="#fff"/><path d="M80.274 37.958l.019-1-.019 1zM151 22.478l-11.386 1.918 7.355 8.902L151 22.478zM2.171 4.56a38.38 38.38 0 002.24 2.968l1.54-1.275A36.502 36.502 0 013.83 3.44L2.17 4.56zm7.326 8.336a77.61 77.61 0 005.611 4.768l1.224-1.582a75.594 75.594 0 01-5.466-4.645l-1.369 1.459zm11.61 9.016a95.958 95.958 0 006.319 3.758l.956-1.757a93.927 93.927 0 01-6.187-3.68l-1.088 1.679zm12.88 7.026a105.32 105.32 0 006.792 2.8l.697-1.875a103.38 103.38 0 01-6.661-2.746l-.827 1.821zm13.745 5.125c2.283.679 4.646 1.302 7.09 1.86l.446-1.949a111.385 111.385 0 01-6.965-1.828l-.57 1.916zm14.284 3.269c2.355.386 4.777.71 7.265.967l.205-1.99c-2.449-.252-4.83-.571-7.147-.95l-.323 1.973zm14.575 1.509c1.208.055 2.43.094 3.665.117l.037-2c-1.218-.022-2.422-.06-3.61-.115l-.092 1.998zm3.665.117c1.254.023 2.489.036 3.706.04l.007-2a253.138 253.138 0 01-3.676-.04l-.037 2zm11.113-.046a213.25 213.25 0 007.397-.33l-.124-1.995a212.95 212.95 0 01-7.328.325l.055 2zm14.775-.927c2.573-.26 5.03-.563 7.373-.903l-.288-1.98c-2.313.337-4.741.637-7.285.893l.2 1.99zm14.676-2.148c2.583-.51 4.998-1.063 7.248-1.65l-.504-1.935a121.85 121.85 0 01-7.131 1.623l.387 1.962zm14.389-3.785a73.838 73.838 0 006.945-2.752l-.835-1.817a71.75 71.75 0 01-6.758 2.677l.648 1.892z" fill="#fff"/></svg>