<svg width="673" height="444" fill="none" xmlns="http://www.w3.org/2000/svg"><path d="M96.431 279.409c6.781 60.227 69.8 90.141 127.236 65.811.797.798 40.922-4.197 113.514-17.359 176.274-18.803 139.506 69.198 74.478 54.221a73.996 73.996 0 01-7.884-2.29c-21.994 27.493-73.925 15.885-81.868 3.666-88.588 42.767-139.721-16.301-141.716-15.503-15.954 15.154-110.084 20.341-129.628-61.025-15.635-65.094 34.169-102.64 61.025-113.276-17.55-35.897 4.387-76.979 32.706-91.338 28.319-14.359 54.245-1.595 54.644-1.196-68.205 18.746-45.47 84.557-43.476 85.355-48.182 21.698-59.43 70.996-59.03 92.934z" fill="#67A8D2"/><path d="M323.381 20.55c75.942 4.468 99.714 62.222 102.107 90.541 16.22-6.648 54.484-13.88 77.777 10.37 23.293 24.251 23.267 51.852 20.342 62.621 24.064 4.121 73.629 25.766 79.372 79.372 5.744 53.607-32.706 85.887-52.649 95.327-7.445 2.792-25.527 8.376-38.29 8.376-11.567 16.619-61.832 38.295-108.265 7.747 0 0-7.878 18.329-40.323 18.329-29.937 0-45.256-18.764-49.644-20.891-21.538 5.85-69.8 9.573-90.54-22.336-21.406 7.844-71.396 16.273-100.113-12.763-15.556-15.157-45.47-53.846-24.33-107.293 9.971-23.931 30.313-40.683 55.839-45.071.399-1.595-48.095-34.875-17.948-77.777 13.513-19.23 58.233-15.555 72.592 0 5.185-28.85 35.259-86.552 114.073-86.552z" fill="#8CB1C9"/><path d="M224.863 176.503c3.723-16.619 18.906-50.335 49.857-52.25 30.952-1.914 49.06 21.007 54.245 32.706 8.509-7.312 31.111-20.261 53.447-13.561 22.336 6.701 34.833 24.862 38.29 33.105 7.312-6.248 27.202-15.635 48.261-3.19 21.06 12.444 28.984 26.723 30.314 32.307-4.521-7.977-18.826-24.968-39.886-29.117-21.06-4.148-36.429 2.792-41.481 6.781-4.521-9.44-19.066-28.797-41.082-30.712-22.017-1.914-41.083 8.775-47.863 14.359-5.318-10.636-22.655-32.228-49.458-33.504-26.804-1.276-47.597 28.186-54.644 43.076z" fill="#67A8D2"/><g filter="url(#filter0_f_12_219)"><ellipse cx="235.763" cy="430.501" rx="69.649" ry="5.499" fill="#67A8D2"/></g><g filter="url(#filter1_f_12_219)"><ellipse cx="381.17" cy="429.279" rx="69.649" ry="5.499" fill="#67A8D2"/></g><g filter="url(#filter2_f_12_219)"><ellipse cx="525.355" cy="429.279" rx="59.874" ry="5.499" fill="#67A8D2"/></g><g clip-path="url(#clip0_12_219)"><path d="M207.736 206.281c.521 0 .987.324 1.162.81l1.251 3.467c.449.112.833.223 1.159.34.356.128.815.321 1.382.585l2.913-1.542a1.243 1.243 0 011.474.232l2.562 2.649c.34.353.436.868.244 1.318l-1.366 3.202c.227.416.408.773.546 1.07.149.324.333.771.553 1.347l3.184 1.364c.478.204.774.682.742 1.194l-.234 3.677a1.232 1.232 0 01-.246.658c-.145.19-.343.334-.569.414l-3.015 1.071a11.21 11.21 0 01-.273 1.074 15.89 15.89 0 01-.528 1.371l1.515 3.349a1.215 1.215 0 01-.298 1.405l-2.881 2.573a1.247 1.247 0 01-1.41.17l-2.97-1.573c-.464.245-.944.463-1.435.65l-1.297.485-1.151 3.189a1.237 1.237 0 01-1.134.81l-3.367.076a1.237 1.237 0 01-1.185-.792l-1.357-3.591a25.79 25.79 0 01-1.375-.514c-.371-.16-.736-.334-1.095-.519l-3.366 1.439a1.242 1.242 0 01-1.338-.236l-2.491-2.337a1.209 1.209 0 01-.275-1.387l1.448-3.154a16.665 16.665 0 01-.535-1.141 25.526 25.526 0 01-.532-1.437l-3.171-.966a1.228 1.228 0 01-.869-1.21l.124-3.403a1.224 1.224 0 01.695-1.053l3.327-1.598a16.84 16.84 0 01.408-1.325c.167-.428.353-.849.556-1.262l-1.442-3.047a1.211 1.211 0 01.266-1.4l2.487-2.349a1.249 1.249 0 011.329-.245l3.363 1.389c.372-.248.709-.448 1.013-.609.364-.193.849-.395 1.46-.613l1.17-3.262a1.227 1.227 0 011.162-.813h3.71zm-1.867 12.436c-2.954 0-5.348 2.365-5.348 5.285s2.394 5.287 5.348 5.287c2.951 0 5.345-2.367 5.345-5.287s-2.392-5.285-5.345-5.285z" fill="#67A8D2"/></g><g clip-path="url(#clip1_12_219)"><path d="M188.186 175.733c.52 0 .986.324 1.162.81l1.251 3.467c.448.112.832.223 1.158.34.357.128.815.321 1.382.585l2.913-1.541a1.244 1.244 0 011.474.232l2.562 2.649c.34.352.436.868.245 1.318l-1.366 3.201c.227.417.407.773.545 1.07.149.325.334.771.553 1.347l3.184 1.364c.479.204.774.682.743 1.194l-.234 3.677a1.22 1.22 0 01-.815 1.072l-3.016 1.072c-.087.416-.177.772-.273 1.073-.154.466-.33.923-.528 1.372l1.515 3.348a1.209 1.209 0 01-.298 1.405l-2.88 2.573a1.25 1.25 0 01-1.411.17l-2.969-1.573c-.465.246-.944.463-1.435.65l-1.297.485-1.152 3.19a1.227 1.227 0 01-1.134.809l-3.366.077a1.243 1.243 0 01-1.186-.792l-1.357-3.592a25.26 25.26 0 01-1.375-.514c-.37-.16-.736-.333-1.095-.519l-3.366 1.439a1.24 1.24 0 01-1.338-.236l-2.491-2.337a1.21 1.21 0 01-.274-1.387l1.447-3.154a16.921 16.921 0 01-.535-1.141 24.95 24.95 0 01-.531-1.437l-3.172-.965a1.223 1.223 0 01-.868-1.21l.124-3.404a1.217 1.217 0 01.694-1.052l3.328-1.599c.154-.565.289-1.004.407-1.325.167-.428.353-.849.557-1.261l-1.443-3.048a1.21 1.21 0 01.266-1.399l2.488-2.35a1.24 1.24 0 011.329-.244l3.362 1.389c.372-.248.709-.449 1.014-.61.363-.193.849-.395 1.46-.613l1.169-3.262a1.237 1.237 0 011.162-.813h3.711zm-.869 2.44h-1.972l-1.072 3.001a1.234 1.234 0 01-.768.75c-.773.257-1.331.478-1.657.65a12.22 12.22 0 00-1.311.833 1.252 1.252 0 01-1.193.131l-3.242-1.338-1.263 1.194 1.316 2.782c.16.337.156.726-.01 1.058-.355.71-.594 1.235-.714 1.557-.121.321-.282.872-.479 1.634a1.223 1.223 0 01-.655.797l-3.172 1.522-.064 1.736 2.871.872c.381.115.682.407.808.783.283.851.51 1.478.673 1.871.216.499.455.988.716 1.465.179.333.191.73.033 1.074l-1.33 2.902 1.259 1.184 3.158-1.35a1.246 1.246 0 011.068.042c.647.34 1.129.576 1.433.705.311.13.904.346 1.765.64a1.231 1.231 0 01.751.726l1.255 3.315 1.64-.035 1.058-2.931a1.231 1.231 0 01.725-.731l1.837-.688c.464-.172 1.028-.443 1.685-.815a1.243 1.243 0 011.194-.014l2.794 1.479 1.572-1.401-1.375-3.035a1.213 1.213 0 01-.002-.992c.323-.721.541-1.265.651-1.613.108-.34.219-.831.327-1.461.037-.215.131-.415.272-.581.14-.166.322-.292.527-.364l2.92-1.036.128-2.02-2.87-1.23a1.225 1.225 0 01-.668-.698 27.35 27.35 0 00-.67-1.672 19.672 19.672 0 00-.744-1.407 1.191 1.191 0 01-.157-.53 1.196 1.196 0 01.095-.544l1.284-3.012-1.353-1.399-2.637 1.396a1.248 1.248 0 01-1.121.023 20.27 20.27 0 00-1.715-.755 12.695 12.695 0 00-1.519-.407 1.238 1.238 0 01-.9-.782l-1.183-3.283.001.002zm-.999 7.555c4.314 0 7.814 3.46 7.814 7.726 0 4.267-3.5 7.725-7.814 7.725-4.316 0-7.813-3.458-7.813-7.725 0-4.266 3.497-7.725 7.813-7.725v-.001zm0 2.441c-2.953 0-5.347 2.366-5.347 5.285 0 2.92 2.394 5.287 5.347 5.287 2.952 0 5.346-2.367 5.346-5.287 0-2.919-2.392-5.285-5.346-5.285z" fill="#67A8D2"/></g><rect x="197.883" y="398.121" width="18.329" height="12.219" rx="2" fill="#5A8EAF"/><rect x="250.426" y="398.121" width="18.329" height="12.219" rx="2" fill="#5A8EAF"/><rect x="162.635" y="368.184" width="142.353" height="32.381" rx="5" fill="#5A8EAF"/><rect x="168.744" y="380.403" width="64.761" height="7.331" rx="3.666" fill="#8CB1C9"/><circle cx="264.664" cy="384.069" r="3.666" fill="#8CB1C9"/><circle cx="277.494" cy="384.069" r="3.666" fill="#8CB1C9"/><circle cx="290.324" cy="384.069" r="3.666" fill="#8CB1C9"/><rect x="162.635" y="332.138" width="142.353" height="32.381" rx="5" fill="#5A8EAF"/><rect x="168.744" y="344.357" width="64.761" height="7.331" rx="3.666" fill="#8CB1C9"/><circle cx="264.664" cy="348.023" r="3.666" fill="#8CB1C9"/><circle cx="277.494" cy="348.023" r="3.666" fill="#8CB1C9"/><circle cx="290.324" cy="348.023" r="3.666" fill="#8CB1C9"/><rect x="162.635" y="295.48" width="142.353" height="32.381" rx="5" fill="#5A8EAF"/><rect x="168.744" y="307.7" width="64.761" height="7.331" rx="3.666" fill="#8CB1C9"/><circle cx="264.664" cy="311.365" r="3.666" fill="#8CB1C9"/><circle cx="277.494" cy="311.365" r="3.666" fill="#8CB1C9"/><circle cx="290.324" cy="311.365" r="3.666" fill="#8CB1C9"/><rect x="162.635" y="260.045" width="142.353" height="32.381" rx="5" fill="#5A8EAF"/><rect x="168.744" y="272.264" width="64.761" height="7.331" rx="3.666" fill="#8CB1C9"/><circle cx="264.664" cy="275.93" r="3.666" fill="#8CB1C9"/><circle cx="277.494" cy="275.93" r="3.666" fill="#8CB1C9"/><circle cx="290.324" cy="275.93" r="3.666" fill="#8CB1C9"/><rect x="345.735" y="398.121" width="18.329" height="12.219" rx="2" fill="#5A8EAF"/><rect x="398.277" y="398.121" width="18.329" height="12.219" rx="2" fill="#5A8EAF"/><rect x="310.299" y="368.184" width="142.353" height="32.381" rx="5" fill="#5A8EAF"/><rect x="316.409" y="380.403" width="64.761" height="7.331" rx="3.666" fill="#8CB1C9"/><circle cx="412.329" cy="384.069" r="3.666" fill="#8CB1C9"/><circle cx="425.159" cy="384.069" r="3.666" fill="#8CB1C9"/><circle cx="437.989" cy="384.069" r="3.666" fill="#8CB1C9"/><rect x="310.299" y="332.138" width="142.353" height="32.381" rx="5" fill="#5A8EAF"/><rect x="316.409" y="344.357" width="64.761" height="7.331" rx="3.666" fill="#8CB1C9"/><circle cx="412.329" cy="348.023" r="3.666" fill="#8CB1C9"/><circle cx="425.159" cy="348.023" r="3.666" fill="#8CB1C9"/><circle cx="437.989" cy="348.023" r="3.666" fill="#8CB1C9"/><rect x="310.299" y="295.48" width="142.353" height="32.381" rx="5" fill="#5A8EAF"/><rect x="316.409" y="307.7" width="64.761" height="7.331" rx="3.666" fill="#8CB1C9"/><circle cx="412.329" cy="311.365" r="3.666" fill="#8CB1C9"/><circle cx="425.159" cy="311.365" r="3.666" fill="#8CB1C9"/><circle cx="437.989" cy="311.365" r="3.666" fill="#8CB1C9"/><rect x="310.299" y="260.045" width="142.353" height="32.381" rx="5" fill="#5A8EAF"/><rect x="316.409" y="272.264" width="64.761" height="7.331" rx="3.666" fill="#8CB1C9"/><circle cx="412.329" cy="275.93" r="3.666" fill="#8CB1C9"/><circle cx="425.159" cy="275.93" r="3.666" fill="#8CB1C9"/><circle cx="437.989" cy="275.93" r="3.666" fill="#8CB1C9"/><rect x="485.032" y="398.121" width="18.329" height="12.219" rx="2" fill="#337CAB"/><rect x="537.574" y="398.121" width="18.329" height="12.219" rx="2" fill="#245F85"/><rect x="460.594" y="170.846" width="129.522" height="229.719" rx="5" fill="#337CAB"/><rect x="460.594" y="170.846" width="129.522" height="202.837" rx="5" fill="#216B9A"/><path fill="#5A94BA" d="M466.847 196.224h123.27v3.626h-123.27zm0 22.66h123.27v3.626h-123.27zm0 22.66h123.27v3.626h-123.27zm0 22.66h123.27v3.626h-123.27z"/><rect x="463.222" y="192.599" width="57.103" height="10.877" rx="5.438" fill="#FE8572"/><rect x="463.222" y="215.259" width="57.103" height="10.877" rx="5.438" fill="#FE8572"/><rect x="463.222" y="236.106" width="57.103" height="10.877" rx="5.438" fill="#FE8572"/><rect x="463.222" y="260.578" width="57.103" height="10.877" rx="5.438" fill="#FE8572"/><path opacity=".5" d="M537.574 170.846h47.543a5 5 0 015 5v219.719a5 5 0 01-5 5h-47.543V170.846z" fill="#15425F"/><circle cx="485.643" cy="288.76" r="4.277" fill="#fff"/><path d="M488.698 289.982c11.812 3.665 43.622 9.653 76.369 4.276 40.934-6.72 53.154-43.377 52.543-59.262-.611-15.885-8.554-38.49-21.995-42.767-2.932-.978-4.887-1.222-5.498-1.222" stroke="#fff" stroke-width="2" stroke-dasharray="7 7"/><circle cx="229.042" cy="347.411" r="4.277" fill="#fff"/><path d="M228.431 346.801c11.812-5.499 38.613-13.197 51.32 0 15.885 16.495 12.83 35.435 0 45.821-12.83 10.386-24.438-7.942-15.273-14.052 9.164-6.109 32.38 10.386 23.827 24.438-8.554 14.052-23.216 24.439-40.323 21.384-13.686-2.444-16.7-15.274-16.496-21.384" stroke="#fff" stroke-width="2" stroke-dasharray="7 7"/><circle cx="315.798" cy="319.308" r="4.277" fill="#fff"/><path d="M315.798 318.697c17.31-7.943 49.487-31.403 39.712-61.707-12.219-37.879-62.928-25.66-54.986-105.695s81.257-37.879 62.928-23.216c-18.328 14.663-48.265-32.381-28.104-65.984 20.162-33.602 47.044-45.821 62.929-35.435 12.708 8.31 14.255 30.751 13.441 40.934" stroke="#fff" stroke-width="2" stroke-dasharray="7 7"/><path d="M497.336 90.335a3.885 3.885 0 002.953-2.85c.917-.239 1.799-.544 2.699-.866v-2.037a4.75 4.75 0 01.101-.865c-1.009.407-2.04.758-3.088 1.052a3.87 3.87 0 00-7.264 1.069h-.764a20.247 20.247 0 01-4.887-12.338 30.201 30.201 0 018.485-8.01 3.789 3.789 0 003.887.95 31.428 31.428 0 007.586 8.486c.11-.143.229-.279.356-.408l1.612-1.544a28.681 28.681 0 01-7.382-8.13c.385-.61.59-1.315.594-2.036v-.373a30.021 30.021 0 0119.126 0 29.65 29.65 0 01-1.951 5.668h2.969a32.2 32.2 0 001.545-4.616c.73.323 1.425.696 2.138 1.086a20.248 20.248 0 011.697 6.941 4.702 4.702 0 012.088-.594c.39.008.778.065 1.154.17a23.762 23.762 0 00-28.901-21.634 23.754 23.754 0 00-18.094 18.466 23.766 23.766 0 009.476 24.053 23.759 23.759 0 0012.741 4.402 4.617 4.617 0 010-3.394 20.251 20.251 0 01-8.876-2.648zm10.03-38.083a20.363 20.363 0 0114.612 6.212c0 .424 0 .865-.136 1.29a32.601 32.601 0 00-20.959.186 3.869 3.869 0 00-2.036-.9 28.656 28.656 0 01-1.035-4.293 20.225 20.225 0 019.554-2.495zm-12.049 4.005c.219 1.1.497 2.188.831 3.259a3.864 3.864 0 00-1.816 3.275v.255a33.015 33.015 0 00-6.924 5.82 20.366 20.366 0 017.909-12.608z" fill="#79A9C9"/><path d="M521.35 79.728a6.517 6.517 0 106.585 6.466 6.57 6.57 0 00-6.585-6.466zm0 10.319a3.803 3.803 0 01-2.614-6.495 3.805 3.805 0 015.823.551 3.81 3.81 0 01.661 2.091 3.839 3.839 0 01-3.87 3.853z" fill="#79A9C9"/><path d="M536.913 84.735a1.937 1.937 0 00-1.188-1.867l-2.648-.78a9.522 9.522 0 00-.441-1.07l1.222-2.257a1.936 1.936 0 00-.357-2.274l-2.274-2.24a1.932 1.932 0 00-2.274-.34l-2.274 1.205a12.34 12.34 0 00-1.137-.475l-.798-2.512a1.93 1.93 0 00-1.832-1.29h-3.259a1.937 1.937 0 00-1.833 1.358l-.746 2.427c-.393.139-.778.298-1.154.475l-2.241-1.188a1.933 1.933 0 00-2.257.323l-2.325 2.223a1.932 1.932 0 00-.356 2.291l1.188 2.172c-.181.362-.34.73-.475 1.103l-2.393.781a1.92 1.92 0 00-1.375 1.85v3.174a1.936 1.936 0 001.392 1.764l2.494.747c.136.362.295.724.476 1.086l-1.222 2.291a1.937 1.937 0 00.339 2.291l2.274 2.24a1.935 1.935 0 002.274.34l2.325-1.222c.351.159.707.306 1.07.441l.746 2.495a1.933 1.933 0 001.85 1.358h3.225a1.935 1.935 0 001.815-1.358l.747-2.495a10.95 10.95 0 001.052-.424l2.342 1.239a1.936 1.936 0 002.258-.34l2.274-2.24a1.932 1.932 0 00.356-2.29l-1.239-2.275c.159-.34.3-.679.424-1.018l2.546-.747a1.922 1.922 0 001.409-1.816v-3.156zm-2.716 2.545l-3.394.985-.204.713a9.438 9.438 0 01-.763 1.85l-.357.644 1.697 3.038-1.459 1.426-3.089-1.698-.628.34a9.793 9.793 0 01-1.9.78l-.713.204-1.001 3.394h-2.088l-1.001-3.309-.713-.204a9.943 9.943 0 01-1.918-.763l-.628-.34-3.071 1.697-1.46-1.442 1.697-3.089-.373-.645a9.508 9.508 0 01-.832-1.917l-.22-.696-3.31-.985V85.21l3.293-.984.203-.696a9.398 9.398 0 01.832-1.935l.373-.662-1.697-2.936 1.477-1.425 3.004 1.595.644-.356a9.865 9.865 0 011.986-.832l.696-.204 1.001-3.241h2.088l.984 3.224.696.204c.683.2 1.344.473 1.968.815l.645.356 3.055-1.612 1.459 1.442-1.697 3.004.357.645a9.38 9.38 0 01.797 1.918l.204.713 3.275.967.085 2.07z" fill="#79A9C9"/><g clip-path="url(#clip2_12_219)"><path d="M118.154 295.786c1.771 0 3.283.626 4.535 1.879 1.253 1.253 1.88 2.765 1.88 4.536v6.415c0 1.771-.627 3.283-1.88 4.536-1.252 1.252-2.764 1.879-4.535 1.879h-38.49c-1.771 0-3.283-.627-4.536-1.879-1.253-1.253-1.88-2.765-1.88-4.536v-6.415c0-1.771.627-3.283 1.88-4.536 1.253-1.253 2.765-1.879 4.536-1.879H95.7v-6.415H79.664c-1.771 0-3.283-.627-4.536-1.88-1.253-1.253-1.88-2.764-1.88-4.535v-6.415c0-1.771.627-3.283 1.88-4.536 1.253-1.253 2.765-1.879 4.536-1.879H95.7v-3.208c0-.902.31-1.662.927-2.28.618-.618 1.37-.927 2.256-.927.885 0 1.645.309 2.28.927.635.618.952 1.378.952 2.28v3.208h16.038c1.771 0 3.283.626 4.535 1.879 1.253 1.253 1.88 2.765 1.88 4.536v6.415c0 1.771-.627 3.282-1.88 4.535-1.252 1.253-2.764 1.88-4.535 1.88h-16.038v6.415h16.038zm-35.308 6.415c-.885 0-1.637.317-2.255.952a3.154 3.154 0 00-.927 2.28c0 .886.309 1.638.927 2.256.618.618 1.37.927 2.255.927.885 0 1.646-.309 2.28-.927a3.03 3.03 0 00.953-2.256c0-.885-.318-1.645-.953-2.28-.634-.635-1.395-.952-2.28-.952zm0-25.66c-.885 0-1.637.317-2.255.952a3.154 3.154 0 00-.927 2.28c0 .886.309 1.637.927 2.256.618.618 1.37.927 2.255.927.885 0 1.646-.309 2.28-.927.635-.619.953-1.37.953-2.256 0-.885-.318-1.645-.953-2.28-.634-.635-1.395-.952-2.28-.952zm32.1 6.415c.869 0 1.621-.309 2.256-.927.634-.619.952-1.37.952-2.256 0-.885-.318-1.645-.952-2.28-.635-.635-1.387-.952-2.256-.952H95.701c-.902 0-1.662.317-2.28.952a3.154 3.154 0 00-.927 2.28c0 .886.309 1.637.927 2.256.618.618 1.378.927 2.28.927h19.245zm-19.245 19.245c-.902 0-1.662.317-2.28.952a3.154 3.154 0 00-.927 2.28c0 .886.309 1.638.927 2.256.618.618 1.378.927 2.28.927h19.245c.869 0 1.621-.309 2.256-.927.634-.618.952-1.37.952-2.256 0-.885-.318-1.645-.952-2.28-.635-.635-1.387-.952-2.256-.952H95.701z" fill="#fff"/></g><g clip-path="url(#clip3_12_219)"><path d="M4.673 150.181l23.813 14.663 21.595-17.771M6.892 182.615l45.408-3.107-2.22-32.435-45.407 3.108 2.22 32.434z" stroke="#5E97BC" stroke-width="2" stroke-linecap="round" stroke-linejoin="round"/></g><g clip-path="url(#clip4_12_219)"><path d="M251.13 102.051l-6.145 2.784-2.928-6.464a1.996 1.996 0 00-2.645-.995l-17.922 8.119-9.566-3.361a.509.509 0 00-.37.017l-14.463 6.552a1.997 1.997 0 00-.996 2.646l15.259 33.682a1.997 1.997 0 002.646.996l39.713-17.991a2.004 2.004 0 001.175-1.904l-.934-22.343a1.997 1.997 0 00-2.824-1.738zm-10.241 4.64l-29.017 13.145a2.002 2.002 0 00-1.174 1.904l.505 12.059-9.98-22.03 10.725-4.859 9.753 3.426 17.291-7.833 1.897 4.188z" fill="#fff"/></g><path d="M197.039 31.11c-4.651-7.771 1.938-11.44 5.814-12.303-.646-1.727-1.292-5.893 1.291-8.742 2.584-2.849 6.46-1.835 8.075-.971 0-2.698 2.196-8.094 10.98-8.094 10.981 0 10.012 9.713 10.658 9.065.646-.647 3.876-1.619 7.752 0 3.1 1.295 3.014 5.288 2.583 7.123 7.428 3.237 8.074 4.532 7.105 12.302-.775 6.216-8.074 6.691-11.626 6.152-.754 1.079-3.101 3.237-6.46 3.237-3.358 0-7.213-2.158-8.72-3.237-.969 1.079-3.875 3.237-7.751 3.237-3.875 0-6.567-2.158-7.428-3.237-2.153 1.726-7.622 3.237-12.273-4.533z" stroke="#6BA0C2" stroke-width="2"/><g clip-path="url(#clip5_12_219)"><path d="M637.795 139.088l-3.518 1.051 1.227 9.753a2.588 2.588 0 001.345 1.963l.16.086a2.596 2.596 0 011.256 1.543l2.813 9.411-9.253 2.837a7.797 7.797 0 00-12.348 1.827 7.773 7.773 0 00-.913 3.182 7.784 7.784 0 008.373 8.275 7.797 7.797 0 005.661-3.133 7.79 7.79 0 001.359-3.019l9.292-2.707 1.018 3.406-1.824 1.712a2.596 2.596 0 00-.709 2.636l3.529 11.808a2.604 2.604 0 001.255 1.541c.606.327 1.317.4 1.976.202l5.58-1.667a2.599 2.599 0 001.744-3.231l-3.529-11.808a2.601 2.601 0 00-2.039-1.814l-2.465-.431-1.009-3.377 9.383-2.734a7.807 7.807 0 0012.21-1.958 7.661 7.661 0 00.725-1.901l-7.53 2.253-3.568-3 1.335-4.464 7.533-2.251a7.794 7.794 0 00-7.589-1.803 7.784 7.784 0 00-5.347 5.679l-9.335 2.863-2.809-9.386a2.591 2.591 0 01.202-1.976l.088-.163a2.596 2.596 0 00.046-2.376l-4.325-8.829zm8.91 36.222a1.293 1.293 0 01.991.101 1.294 1.294 0 01.627.772l3.155 10.555a1.307 1.307 0 01-.101.99 1.297 1.297 0 01-.772.628 1.292 1.292 0 01-1.381-.425 1.324 1.324 0 01-.237-.448l-3.155-10.555a1.309 1.309 0 01.101-.99 1.286 1.286 0 01.772-.628zm-17.907-8.621l.778 1.134 1.177.711.107 1.371.662 1.205-.593 1.241-.028 1.374-1.133.778-.712 1.177-1.371.107-1.205.663-1.241-.593-1.374-.028-.778-1.134-1.177-.712-.107-1.371-.662-1.205.593-1.24.028-1.375 1.133-.778.712-1.176 1.371-.107 1.205-.663 1.24.593 1.375.028z" fill="#80AECC"/></g><g clip-path="url(#clip6_12_219)"><path d="M625.583 36.586l.88 4.162c.776 3.669-7.694 8.586-18.914 10.96-11.22 2.373-20.955 1.306-21.731-2.362l-.881-4.163c-.776-3.669 7.694-8.586 18.914-10.96 11.22-2.372 20.956-1.306 21.732 2.363zm1.981 9.366l1.981 9.366c.776 3.669-7.694 8.586-18.914 10.96-11.22 2.372-20.956 1.306-21.732-2.363l-1.981-9.366c5.005 2.095 13.294 1.81 21.259.124 7.965-1.684 15.659-4.78 19.387-8.721zm3.082 14.57l1.981 9.366c.776 3.668-7.694 8.586-18.914 10.959-11.22 2.373-20.956 1.306-21.732-2.362L590 69.119c5.005 2.094 13.293 1.809 21.258.124s15.66-4.78 19.388-8.721z" fill="#80AECC"/></g><defs><clipPath id="clip0_12_219"><path fill="#fff" transform="translate(188.108 206.281)" d="M0 0h35.435v35.435H0z"/></clipPath><clipPath id="clip1_12_219"><path fill="#fff" transform="translate(168.558 175.733)" d="M0 0h35.435v35.435H0z"/></clipPath><clipPath id="clip2_12_219"><path fill="#fff" transform="translate(73.249 263.711)" d="M0 0h51.32v51.32H0z"/></clipPath><clipPath id="clip3_12_219"><path fill="#fff" transform="rotate(-3.915 2058.564 59.165)" d="M0 0h52.016v52.016H0z"/></clipPath><clipPath id="clip4_12_219"><path fill="#fff" transform="rotate(-24.372 326.62 -382.354)" d="M0 0h63.962v63.962H0z"/></clipPath><clipPath id="clip5_12_219"><path fill="#fff" transform="rotate(28.358 44.943 1326.598)" d="M0 0h41.545v41.545H0z"/></clipPath><clipPath id="clip6_12_219"><path fill="#fff" transform="rotate(-11.943 475.905 -2770.057)" d="M0 0h41.545v47.654H0z"/></clipPath><filter id="filter0_f_12_219" x="158.114" y="417.003" width="155.298" height="26.997" filterUnits="userSpaceOnUse" color-interpolation-filters="sRGB"><feFlood flood-opacity="0" result="BackgroundImageFix"/><feBlend in="SourceGraphic" in2="BackgroundImageFix" result="shape"/><feGaussianBlur stdDeviation="4" result="effect1_foregroundBlur_12_219"/></filter><filter id="filter1_f_12_219" x="303.521" y="415.781" width="155.298" height="26.997" filterUnits="userSpaceOnUse" color-interpolation-filters="sRGB"><feFlood flood-opacity="0" result="BackgroundImageFix"/><feBlend in="SourceGraphic" in2="BackgroundImageFix" result="shape"/><feGaussianBlur stdDeviation="4" result="effect1_foregroundBlur_12_219"/></filter><filter id="filter2_f_12_219" x="457.482" y="415.781" width="135.747" height="26.997" filterUnits="userSpaceOnUse" color-interpolation-filters="sRGB"><feFlood flood-opacity="0" result="BackgroundImageFix"/><feBlend in="SourceGraphic" in2="BackgroundImageFix" result="shape"/><feGaussianBlur stdDeviation="4" result="effect1_foregroundBlur_12_219"/></filter></defs></svg>