<svg width="21" height="21" viewBox="0 0 21 21" fill="none" xmlns="http://www.w3.org/2000/svg">
<g opacity="0.7">
<path d="M18.1696 4.10303H2.90178C2.56434 4.10303 2.24072 4.23708 2.00211 4.47568C1.7635 4.71429 1.62946 5.03791 1.62946 5.37535V15.5539C1.62946 15.8914 1.7635 16.215 2.00211 16.4536C2.24072 16.6922 2.56434 16.8262 2.90178 16.8262H18.1696C18.5071 16.8262 18.8307 16.6922 19.0693 16.4536C19.3079 16.215 19.442 15.8914 19.442 15.5539V5.37535C19.442 5.03791 19.3079 4.71429 19.0693 4.47568C18.8307 4.23708 18.5071 4.10303 18.1696 4.10303ZM16.7701 5.37535L10.5357 9.68852L4.30133 5.37535H16.7701ZM2.90178 15.5539V5.95425L10.1731 10.9863C10.2796 11.0602 10.4061 11.0997 10.5357 11.0997C10.6653 11.0997 10.7918 11.0602 10.8983 10.9863L18.1696 5.95425V15.5539H2.90178Z" fill="white"/>
</g>
</svg>
