<svg width="20" height="20" viewBox="0 0 20 20" fill="none" xmlns="http://www.w3.org/2000/svg">
<g opacity="0.7" clip-path="url(#clip0_75_120)">
<path d="M15.2125 19.3433C15.0323 19.3428 14.8528 19.323 14.6768 19.2843C11.3268 18.5914 8.24051 16.9665 5.77322 14.5968C3.35858 12.222 1.68389 9.19824 0.95179 5.89149C0.865466 5.47937 0.886653 5.05197 1.01331 4.65041C1.13997 4.24885 1.36785 3.88664 1.675 3.59864L3.81786 1.53614C3.92731 1.43263 4.05736 1.35337 4.19951 1.30352C4.34167 1.25367 4.49274 1.23436 4.64286 1.24685C4.79852 1.26309 4.94873 1.31323 5.08293 1.39375C5.21714 1.47428 5.33207 1.58322 5.41965 1.71292L8.09822 5.67185C8.19867 5.82546 8.24715 6.00726 8.23655 6.19049C8.22594 6.37373 8.15679 6.54871 8.03929 6.68971L6.69465 8.29685C7.23017 9.48209 7.98858 10.5533 8.92858 11.4522C9.86248 12.3837 10.9663 13.1275 12.1804 13.6433L13.8464 12.3201C13.9864 12.2095 14.1566 12.1441 14.3346 12.1326C14.5126 12.1211 14.6899 12.1641 14.8429 12.2558L18.8875 14.8701C19.0263 14.9529 19.1446 15.0661 19.2334 15.2012C19.3222 15.3363 19.3793 15.4897 19.4005 15.65C19.4216 15.8102 19.4062 15.9732 19.3554 16.1267C19.3046 16.2801 19.2197 16.4201 19.1071 16.5361L17.0179 18.604C16.7805 18.8402 16.4988 19.027 16.189 19.1539C15.8792 19.2808 15.5473 19.3452 15.2125 19.3433ZM4.55715 2.30757L2.41429 4.37007C2.2415 4.53107 2.11359 4.73429 2.04314 4.95972C1.97269 5.18515 1.96213 5.42503 2.0125 5.65578C2.69325 8.75871 4.25807 11.5981 6.51786 13.8308C8.83975 16.0602 11.7441 17.5885 14.8964 18.2397C15.135 18.2896 15.3823 18.2795 15.616 18.2103C15.8498 18.1411 16.0627 18.015 16.2357 17.8433L18.325 15.7754L14.4196 13.2522L12.6304 14.6772C12.5619 14.7314 12.4811 14.7681 12.3952 14.7839C12.3093 14.7998 12.2209 14.7944 12.1375 14.7683C10.6518 14.2209 9.30543 13.352 8.19465 12.2236C7.04573 11.1507 6.15391 9.83221 5.58572 8.36649C5.56168 8.27776 5.56088 8.18433 5.5834 8.0952C5.60592 8.00607 5.65099 7.92423 5.71429 7.85756L7.16072 6.12721L4.55715 2.30757Z" fill="white"/>
</g>
<defs>
<clipPath id="clip0_75_120">
<rect width="19.2857" height="19.2857" fill="white" transform="translate(0.35714 0.357422)"/>
</clipPath>
</defs>
</svg>
