<svg width="34" height="20" viewBox="0 0 34 20" fill="none" xmlns="http://www.w3.org/2000/svg">
<path d="M32.965 1.42488C33.1983 0.649877 32.965 0.081543 31.8617 0.081543H28.2067C27.2767 0.081543 26.8517 0.57321 26.6183 1.11321C26.6183 1.11321 24.76 5.64488 22.1267 8.58321C21.2767 9.43821 20.8883 9.70821 20.425 9.70821C20.1933 9.70821 19.8567 9.43821 19.8567 8.66321V1.42488C19.8567 0.494877 19.5883 0.081543 18.8133 0.081543H13.07C12.49 0.081543 12.14 0.511543 12.14 0.921543C12.14 1.80154 13.4567 2.00488 13.5917 4.48488V9.86488C13.5917 11.0432 13.38 11.2582 12.9133 11.2582C11.675 11.2582 8.66168 6.70988 6.87334 1.50321C6.52501 0.491543 6.17334 0.0832103 5.24001 0.0832103H1.58668C0.541677 0.0832103 0.333344 0.574877 0.333344 1.11488C0.333344 2.08488 1.57168 6.88488 6.10168 13.2332C9.12168 17.5682 13.3733 19.9182 17.2467 19.9182C19.5683 19.9182 19.855 19.3965 19.855 18.4965V15.2199C19.855 14.1765 20.0767 13.9665 20.8117 13.9665C21.3517 13.9665 22.2817 14.2399 24.45 16.3282C26.9267 18.8049 27.3367 19.9165 28.7283 19.9165H32.3817C33.425 19.9165 33.9467 19.3949 33.6467 18.3649C33.3183 17.3399 32.135 15.8482 30.565 14.0832C29.7117 13.0765 28.4367 11.9932 28.0483 11.4515C27.5067 10.7532 27.6633 10.4449 28.0483 9.82488C28.05 9.82654 32.5017 3.55654 32.965 1.42488Z" fill="white"/>
</svg>
