<svg width="53" height="56" viewBox="0 0 53 56" fill="none" xmlns="http://www.w3.org/2000/svg">
<path fill-rule="evenodd" clip-rule="evenodd" d="M8.60203 29.9883V2.41032C8.60203 1.63566 9.04806 0.0863319 10.8322 0.0863319H41.5765C42.373 0.0346877 43.9659 0.427184 43.9659 2.41032V29.9883L51.1343 30.1433C51.6653 30.1949 52.7273 30.67 52.7273 32.1574C52.7273 34.0166 51.7715 34.0166 49.5413 36.0307C47.7572 37.642 34.6736 49.2 28.3548 54.7775C27.9832 55.0874 27.0486 55.7071 26.284 55.7071C25.3282 55.7071 24.8503 55.2423 24.2131 54.7775C23.7034 54.4057 9.87641 42.1247 3.02664 36.0307C0.637188 33.9049 -4.48582e-06 33.2419 0 32.1574C5.76754e-06 30.763 0.796473 30.1433 1.91156 30.1433C2.80362 30.1433 6.74357 30.04 8.60203 29.9883ZM13.0623 34.4814V4.42444H39.5056V34.4814H44.7624L26.284 50.7493L7.64625 34.4814H13.0623Z" fill="#1B567C"/>
</svg>
