<svg width="47" height="82" fill="none" xmlns="http://www.w3.org/2000/svg"><path d="M47 27.534c0 12.807-7.462 23.571-17.57 26.65a20.33 20.33 0 01-12.607-.243C7.097 50.571 0 40.023 0 27.534 0 12.327 10.521 0 23.5 0S47 12.327 47 27.534z" fill="#1B567C"/><path d="M23.5 55.068c-2.32 0-4.56-.393-6.677-1.127l-.834 2.532c-.161.718 0 2.161 1.933 2.196.658.012 1.671.018 2.81.02a818.147 818.147 0 006.37-.02c.805.088 2.495.018 2.811-.966.316-.984-.19-2.756-.483-3.519a20.301 20.301 0 01-5.93.884z" fill="#1B567C"/><path d="M20.733 58.688c.937 1.15 2.899 3.617 3.25 4.285.352.667.644 1.478.747 1.8.146.337.281 1.168-.352 1.8-.632.633-2.43 2.284-3.25 3.03-.351.41-1.098 1.327-1.274 1.713-.22.483-.263 1.406-.263 1.713 0 .308.175 1.537.57 2.24.396.702 1.494 2.59 2.504 3.6 1.01 1.01 2.372 2.504 3.47 3.03.492.317 1.348-.19 1.714-.482.453-.352 1.107-1.326.087-2.416-1.273-1.361-2.372-1.976-3.382-3.293-.808-1.054-1.244-1.874-1.361-2.152-.132-.307-.167-1.115.746-1.888.914-.773 2.167-1.786 2.68-2.196l1.186-1.58c.351-.513.948-1.89.527-3.294-.527-1.757-1.318-3.581-3.075-5.919a953.7 953.7 0 01-4.524.01z" fill="#1B567C"/></svg>