<svg width="90" height="54" fill="none" xmlns="http://www.w3.org/2000/svg"><path fill-rule="evenodd" clip-rule="evenodd" d="M35.918 30.11L7.805 22.96c-.951-.392-2.753-1.682-2.35-3.7.503-2.523 1.846-2.944 3.105-2.944h32.98c1.399-1.906 5.12-5.904 8.812-6.644-.135-.067-.056-2.663 0-3.953L17.79 7.317c-1.203-.084-3.575-.774-3.44-2.86.134-2.085 2.181-2.55 3.188-2.523l32.814 1.43V1.682c.055-.56.486-1.682 1.762-1.682s1.706 1.121 1.762 1.682v1.682L87.11 1.682c.923.14 2.77.908 2.77 2.86 0 1.95-1.847 2.607-2.77 2.691L53.877 5.719v3.448c5.763-.336 19.067.539 26.184 6.729 7.116 6.19 9.51 11.83 9.818 13.877.476 3.644-.201 11.59-6.713 14.213-6.513 2.624-13.623 3.056-16.365 2.944H49.933c-3.329.056-10.49-1.06-12.504-5.971-1.41-3.028-1.595-8.495-1.51-10.85zM61.85 18.586c.47-3.162 3.44-3.729 4.867-3.617 12.42-.672 20.141 14.046 19.218 15.14-.738.874-3.217 1.485-4.364 1.681-4.056.168-12.99.522-16.28.589-3.29.067-4.113-3.785-4.113-5.719.028-1.374.202-4.912.672-8.074z" fill="#1B567C"/><path fill-rule="evenodd" clip-rule="evenodd" d="M8.896 28.595c4.912 0 8.895-3.991 8.895-8.915 0-4.923-3.982-8.915-8.895-8.915C3.983 10.765 0 14.757 0 19.68c0 4.924 3.983 8.915 8.896 8.915zm-.084-2.354c3.569 0 6.462-2.9 6.462-6.477 0-3.576-2.893-6.476-6.462-6.476-3.57 0-6.462 2.9-6.462 6.476 0 3.577 2.893 6.477 6.462 6.477z" fill="#1B567C"/><path d="M34.408 50.547h41.624c2.294-.057 7.218-.572 8.56-2.187 1.343-1.615 2.238-1.626 2.518-1.43.7.392 1.83 1.581.755 3.196-1.074 1.615-4.028 2.691-5.37 3.028-2.49.308-9.786.908-19.05.84-9.266-.066-23.387-.027-29.29 0-.503-.167-1.493-.773-1.426-1.85.067-1.076 1.147-1.513 1.679-1.597z" fill="#1B567C"/></svg>