<svg width="84" height="56" fill="none" xmlns="http://www.w3.org/2000/svg"><path d="M27.836 54.313l-3.932-22.446L.394 19.25c-.41-.655-.853-2.048.655-2.376 1.507-.327 54.695-11.332 81.1-16.793.328-.027 1.049.016 1.31.41.328.491.246 1.064 0 1.802-.196.59-13.025 35.362-19.414 52.674-.219.6-.983 1.573-2.294.655-1.31-.917-11.196-7.372-15.974-10.485L30.13 55.705c-.682.3-2.097.443-2.294-1.392z" fill="#262626"/><path fill-rule="evenodd" clip-rule="evenodd" d="M27.836 54.237l-3.932-22.446L.394 19.176c-.41-.656-.853-2.048.655-2.376 1.507-.328 54.695-11.332 81.1-16.793.328-.028 1.049.016 1.31.41.328.49.246 1.064 0 1.801-.196.59-13.025 35.362-19.414 52.675-.219.6-.983 1.572-2.294.655-1.31-.918-11.196-7.373-15.974-10.486L30.13 55.63c-.682.3-2.097.442-2.294-1.393zm39.65-43.751L26.525 31.79l3.03 16.87 4.26-13.19 33.67-24.985zM31.85 51.118l3.769-12.534 7.536 4.997-11.305 7.537z" fill="#1B567C"/></svg>