<svg width="80" height="80" fill="none" xmlns="http://www.w3.org/2000/svg"><path d="M74.631 5.978a.743.743 0 00-.554-.572C64.925 3.17 43.78 11.142 32.324 22.594a49.532 49.532 0 00-5.568 6.578c-3.532-.313-7.065-.052-10.076 1.26C8.184 34.173 5.71 43.929 5.022 48.126a1.506 1.506 0 001.648 1.75l13.643-1.505a30.14 30.14 0 00.186 3.078 3.05 3.05 0 00.89 1.875l5.283 5.27a3.061 3.061 0 001.875.891 30.25 30.25 0 003.06.186l-1.496 13.625a1.507 1.507 0 001.75 1.649c4.189-.672 13.963-3.146 17.68-11.64 1.312-3.012 1.58-6.527 1.278-10.043a49.646 49.646 0 006.595-5.569c11.492-11.434 19.42-32.108 17.217-41.714zM45.95 34.052a7.5 7.5 0 118.17 1.626 7.492 7.492 0 01-8.17-1.626z" fill="#1B567C"/><path d="M26.313 62.41c-.857.859-2.23 1.193-3.883 1.48-3.714.632-6.994-2.578-6.327-6.332.255-1.424 1.008-3.419 1.477-3.888a.684.684 0 00-.57-1.164 9.374 9.374 0 00-5.49 2.675C7.847 58.858 7.5 72.5 7.5 72.5s13.65-.347 17.323-4.023a9.326 9.326 0 002.677-5.494c.058-.653-.738-1.042-1.188-.572z" fill="#1B567C"/></svg>