<svg width="31" height="31" fill="none" xmlns="http://www.w3.org/2000/svg"><path d="M15.5 2.793c4.139 0 4.629.016 6.263.09 1.511.07 2.332.322 2.878.534.724.281 1.24.617 1.783 1.16a4.802 4.802 0 011.16 1.782c.211.546.464 1.367.533 2.878.074 1.634.09 2.124.09 6.263 0 4.139-.016 4.629-.09 6.263-.07 1.512-.322 2.332-.534 2.878a4.803 4.803 0 01-1.16 1.783 4.802 4.802 0 01-1.781 1.16c-.547.211-1.367.464-2.879.533-1.634.075-2.124.09-6.263.09-4.139 0-4.63-.015-6.263-.09-1.512-.07-2.332-.322-2.878-.534a4.802 4.802 0 01-1.783-1.16 4.802 4.802 0 01-1.16-1.781c-.211-.547-.464-1.367-.533-2.879-.074-1.634-.09-2.124-.09-6.263 0-4.139.016-4.629.09-6.263.07-1.511.322-2.332.534-2.878a4.801 4.801 0 011.16-1.783 4.803 4.803 0 011.782-1.16c.546-.211 1.366-.464 2.878-.533 1.634-.074 2.124-.09 6.263-.09zM15.5 0c-4.21 0-4.737.018-6.39.093-1.65.076-2.777.338-3.763.72A7.597 7.597 0 002.6 2.603 7.597 7.597 0 00.814 5.347C.43 6.333.169 7.46.094 9.109.017 10.763 0 11.29 0 15.5s.018 4.737.093 6.39c.076 1.65.337 2.777.72 3.763a7.595 7.595 0 001.788 2.745 7.597 7.597 0 002.746 1.788c.986.384 2.112.645 3.762.72 1.654.076 2.181.094 6.391.094s4.737-.018 6.39-.093c1.65-.076 2.777-.337 3.763-.72a7.596 7.596 0 002.745-1.789 7.597 7.597 0 001.788-2.745c.383-.986.645-2.112.72-3.762.076-1.654.094-2.181.094-6.391s-.018-4.737-.093-6.39c-.076-1.65-.338-2.777-.72-3.763a7.597 7.597 0 00-1.789-2.745A7.595 7.595 0 0025.653.814C24.667.43 23.54.169 21.891.094 20.237.017 19.71 0 15.5 0zm0 7.54a7.96 7.96 0 100 15.92 7.96 7.96 0 000-15.92zm0 13.127a5.167 5.167 0 110-10.334 5.167 5.167 0 010 10.334zM25.634 7.226a1.86 1.86 0 11-3.72 0 1.86 1.86 0 013.72 0z" fill="#fff"/></svg>