<svg width="20" height="20" fill="none" xmlns="http://www.w3.org/2000/svg"><g opacity=".7" clip-path="url(#clip0_75_120)"><path d="M15.213 19.343c-.18 0-.36-.02-.536-.059a18.165 18.165 0 01-8.904-4.687A17.523 17.523 0 01.952 5.89a2.454 2.454 0 01.723-2.29l2.143-2.063a1.071 1.071 0 01.825-.29 1.071 1.071 0 01.777.467l2.678 3.959A.857.857 0 018.04 6.69L6.695 8.297a10.146 10.146 0 002.234 3.155 10.317 10.317 0 003.251 2.191l1.666-1.323a.879.879 0 01.997-.064l4.044 2.614a1.07 1.07 0 01.22 1.666l-2.09 2.068a2.54 2.54 0 01-1.804.74zM4.556 2.308L2.414 4.37a1.36 1.36 0 00-.401 1.286 16.447 16.447 0 004.505 8.175 17.09 17.09 0 008.378 4.409 1.473 1.473 0 001.34-.397l2.089-2.068-3.905-2.523-1.79 1.425a.535.535 0 01-.493.091 10.746 10.746 0 01-3.942-2.544 10.44 10.44 0 01-2.61-3.858.536.536 0 01.13-.508l1.446-1.73-2.604-3.82z" fill="#fff"/></g><defs><clipPath id="clip0_75_120"><path fill="#fff" transform="translate(.357 .357)" d="M0 0h19.286v19.286H0z"/></clipPath></defs></svg>