<svg width="34" height="20" fill="none" xmlns="http://www.w3.org/2000/svg"><path d="M32.965 1.425c.233-.775 0-1.343-1.103-1.343h-3.655c-.93 0-1.355.491-1.589 1.031 0 0-1.858 4.532-4.491 7.47-.85.855-1.239 1.125-1.702 1.125-.232 0-.568-.27-.568-1.045V1.425c0-.93-.269-1.343-1.044-1.343H13.07c-.58 0-.93.43-.93.84 0 .88 1.317 1.083 1.452 3.563v5.38c0 1.178-.212 1.393-.679 1.393-1.238 0-4.251-4.548-6.04-9.755C6.525.492 6.173.083 5.24.083H1.587C.542.083.333.575.333 1.115c0 .97 1.239 5.77 5.769 12.118 3.02 4.335 7.271 6.685 11.145 6.685 2.321 0 2.608-.521 2.608-1.421V15.22c0-1.043.222-1.254.957-1.254.54 0 1.47.274 3.638 2.362 2.477 2.477 2.887 3.588 4.278 3.588h3.654c1.043 0 1.565-.521 1.265-1.551-.329-1.025-1.512-2.517-3.082-4.282-.853-1.007-2.128-2.09-2.517-2.632-.541-.698-.385-1.006 0-1.626.002.002 4.454-6.268 4.917-8.4z" fill="#fff"/></svg>