<svg width="84" height="56" viewBox="0 0 84 56" fill="none" xmlns="http://www.w3.org/2000/svg">
<path d="M27.8364 54.3126L23.9043 31.8666L0.393428 19.2511C-0.0161688 18.5957 -0.458534 17.2031 1.04878 16.8754C2.5561 16.5477 55.7437 5.54321 82.149 0.0819116C82.4767 0.0546051 83.1976 0.0982954 83.4597 0.491509C83.7874 0.983025 83.7055 1.55647 83.4597 2.29374C83.2631 2.88356 70.4345 37.6556 64.0448 54.9679C63.8264 55.5687 63.0618 56.5408 61.7511 55.6233C60.4404 54.7058 50.5554 48.2505 45.7768 45.1376L30.1302 55.7052C29.4475 56.0056 28.033 56.1476 27.8364 54.3126Z" fill="#262626"/>
<path fill-rule="evenodd" clip-rule="evenodd" d="M27.8364 54.2372L23.9043 31.7913L0.393428 19.1757C-0.0161688 18.5203 -0.458534 17.1277 1.04878 16.8C2.5561 16.4724 55.7437 5.46785 82.149 0.00655605C82.4767 -0.0207504 83.1976 0.0229399 83.4597 0.416153C83.7874 0.90767 83.7055 1.48111 83.4597 2.21838C83.2631 2.8082 70.4345 37.5803 64.0448 54.8926C63.8264 55.4933 63.0618 56.4654 61.7511 55.5479C60.4404 54.6304 50.5554 48.1752 45.7768 45.0622L30.1302 55.6298C29.4475 55.9302 28.033 56.0722 27.8364 54.2372ZM67.4854 10.4857L26.5257 31.7913L29.5567 48.6601L33.8166 35.4711L67.4854 10.4857ZM31.8505 51.1177L35.6188 38.584L43.1554 43.5811L31.8505 51.1177Z" fill="#1B567C"/>
</svg>
