<svg width="80" height="80" viewBox="0 0 80 80" fill="none" xmlns="http://www.w3.org/2000/svg">
<path d="M74.6313 5.97812C74.6027 5.83993 74.5354 5.71274 74.4372 5.61145C74.3389 5.51016 74.2138 5.43898 74.0766 5.40625C64.925 3.16875 43.7797 11.1422 32.3235 22.5937C30.2801 24.6206 28.4174 26.8216 26.7563 29.1719C23.2235 28.8594 19.6906 29.1203 16.6797 30.4328C8.18439 34.1719 5.71095 43.9281 5.02189 48.125C4.98281 48.3547 4.99755 48.5904 5.06496 48.8134C5.13237 49.0365 5.25061 49.2408 5.41038 49.4104C5.57015 49.5801 5.76709 49.7103 5.98572 49.7909C6.20434 49.8715 6.43869 49.9003 6.67033 49.875L20.3125 48.3703C20.3223 49.3988 20.3843 50.4262 20.4985 51.4484C20.5671 52.1583 20.8822 52.8217 21.3891 53.3234L26.6719 58.5937C27.1741 59.0999 27.8372 59.4149 28.5469 59.4844C29.5634 59.5981 30.585 59.6601 31.6078 59.6703L30.111 73.2953C30.086 73.5269 30.115 73.7611 30.1957 73.9795C30.2764 74.198 30.4067 74.3948 30.5762 74.5545C30.7458 74.7142 30.95 74.8325 31.1729 74.9C31.3958 74.9675 31.6313 74.9825 31.861 74.9437C36.05 74.2719 45.8235 71.7984 49.5406 63.3031C50.8531 60.2922 51.1219 56.7766 50.8188 53.2609C53.1747 51.5997 55.3815 49.7364 57.4141 47.6922C68.9063 36.2578 76.8344 15.5844 74.6313 5.97812ZM45.9485 34.0516C44.8991 33.0029 44.1843 31.6665 43.8945 30.2115C43.6047 28.7565 43.7529 27.2483 44.3204 25.8775C44.888 24.5068 45.8493 23.3352 47.0827 22.5108C48.3162 21.6865 49.7664 21.2465 51.25 21.2465C52.7336 21.2465 54.1838 21.6865 55.4173 22.5108C56.6508 23.3352 57.6121 24.5068 58.1796 25.8775C58.7471 27.2483 58.8953 28.7565 58.6055 30.2115C58.3158 31.6665 57.601 33.0029 56.5516 34.0516C55.8557 34.7484 55.0293 35.3012 54.1196 35.6784C53.2099 36.0556 52.2348 36.2498 51.25 36.2498C50.2652 36.2498 49.2901 36.0556 48.3804 35.6784C47.4707 35.3012 46.6443 34.7484 45.9485 34.0516Z" fill="#1B567C"/>
<path d="M26.3125 62.4109C25.4562 63.2688 24.0828 63.6031 22.4297 63.8891C18.7156 64.5219 15.4359 61.3125 16.1031 57.5578C16.3578 56.1344 17.1109 54.1391 17.5797 53.6703C17.6821 53.5698 17.7503 53.4396 17.7746 53.2982C17.7988 53.1568 17.7779 53.0113 17.7148 52.8824C17.6516 52.7535 17.5495 52.6478 17.4229 52.5803C17.2962 52.5128 17.1516 52.4869 17.0094 52.5063C14.9324 52.7604 13.0002 53.702 11.5203 55.1813C7.84688 58.8578 7.5 72.5 7.5 72.5C7.5 72.5 21.15 72.1531 24.8234 68.4766C26.3073 66.9979 27.2501 65.0627 27.5 62.9828C27.5578 62.3297 26.7625 61.9406 26.3125 62.4109Z" fill="#1B567C"/>
</svg>
