<svg width="158" height="312" fill="none" xmlns="http://www.w3.org/2000/svg"><g opacity=".2" clip-path="url(#clip0_607_50)"><path d="M83.057 144c2.47 0 4.679 1.537 5.51 3.839l5.93 16.439c2.126.529 3.949 1.058 5.494 1.612 1.689.605 3.864 1.521 6.552 2.772l13.81-7.308a5.901 5.901 0 016.989 1.101l12.146 12.558a5.736 5.736 0 011.159 6.249l-6.476 15.179c1.075 1.974 1.932 3.663 2.587 5.074.706 1.537 1.579 3.654 2.621 6.384l15.095 6.468a5.77 5.77 0 013.519 5.661l-1.109 17.43a5.786 5.786 0 01-1.169 3.121 5.787 5.787 0 01-2.695 1.961l-14.296 5.082c-.412 1.974-.84 3.663-1.294 5.091a73.984 73.984 0 01-2.503 6.501l7.182 15.876a5.737 5.737 0 01-1.411 6.662l-13.659 12.196a5.902 5.902 0 01-6.686.807l-14.079-7.459a60.678 60.678 0 01-6.803 3.082l-6.15 2.302-5.46 15.12a5.846 5.846 0 01-5.375 3.839l-15.96.361a5.852 5.852 0 01-5.62-3.755l-6.434-17.027c-2.196-.75-4.37-1.562-6.519-2.436a83.052 83.052 0 01-5.19-2.461l-15.96 6.821a5.897 5.897 0 01-6.343-1.117l-11.81-11.08a5.736 5.736 0 01-1.302-6.577l6.862-14.952a79.784 79.784 0 01-2.536-5.41 120.775 120.775 0 01-2.52-6.812l-15.036-4.578a5.795 5.795 0 01-4.116-5.737l.588-16.137a5.778 5.778 0 013.292-4.989l15.776-7.577c.73-2.68 1.369-4.763 1.932-6.283a75.522 75.522 0 012.637-5.981L7.39 181.464a5.737 5.737 0 011.26-6.636l11.793-11.138a5.898 5.898 0 016.3-1.16l15.944 6.586a55.638 55.638 0 014.804-2.89c1.722-.915 4.024-1.873 6.922-2.906l5.544-15.464a5.845 5.845 0 015.51-3.856h17.59zm-8.854 58.96c-14.003 0-25.35 11.214-25.35 25.057 0 13.843 11.347 25.065 25.35 25.065 13.995 0 25.343-11.222 25.343-25.065 0-13.843-11.34-25.057-25.343-25.057z" fill="#67A8D2"/></g><g opacity=".2" clip-path="url(#clip1_607_50)"><path d="M-8.943 0c2.47 0 4.679 1.537 5.51 3.839l5.93 16.439c2.126.529 3.949 1.058 5.494 1.612 1.689.605 3.864 1.52 6.552 2.772l13.81-7.308a5.897 5.897 0 016.989 1.1l12.146 12.559a5.737 5.737 0 011.16 6.25L42.17 52.44c1.075 1.974 1.932 3.663 2.587 5.074.706 1.537 1.58 3.654 2.62 6.384l15.096 6.468a5.771 5.771 0 013.52 5.661l-1.11 17.43a5.796 5.796 0 01-3.864 5.082l-14.296 5.082c-.412 1.974-.84 3.663-1.294 5.091a73.797 73.797 0 01-2.503 6.501l7.182 15.876a5.739 5.739 0 01-1.411 6.662l-13.659 12.196a5.904 5.904 0 01-6.686.807l-14.079-7.459a60.767 60.767 0 01-6.804 3.082l-6.148 2.302-5.46 15.12a5.846 5.846 0 01-5.376 3.839l-15.96.361a5.852 5.852 0 01-5.62-3.755l-6.434-17.027c-2.196-.75-4.37-1.562-6.519-2.436a83.052 83.052 0 01-5.19-2.461l-15.96 6.821a5.897 5.897 0 01-6.343-1.117l-11.81-11.08a5.735 5.735 0 01-1.302-6.577l6.862-14.952a79.784 79.784 0 01-2.536-5.41 120.782 120.782 0 01-2.52-6.812l-15.036-4.578a5.795 5.795 0 01-4.116-5.737l.588-16.137a5.774 5.774 0 013.292-4.99l15.776-7.576c.73-2.68 1.369-4.763 1.932-6.283a75.502 75.502 0 012.637-5.981l-6.837-14.448a5.737 5.737 0 011.26-6.636l11.793-11.138a5.897 5.897 0 016.3-1.16l15.944 6.586a55.473 55.473 0 014.804-2.89c1.722-.915 4.024-1.873 6.922-2.906l5.544-15.464A5.846 5.846 0 01-26.533 0h17.59zm-4.116 11.567h-9.35l-5.081 14.23a5.822 5.822 0 01-3.646 3.553c-3.662 1.218-6.308 2.268-7.854 3.082-1.638.866-3.73 2.184-6.216 3.948a5.906 5.906 0 01-5.653.622l-15.372-6.342-5.99 5.662 6.242 13.188a5.713 5.713 0 01-.05 5.014c-1.68 3.369-2.815 5.855-3.386 7.384-.57 1.52-1.335 4.133-2.268 7.745a5.797 5.797 0 01-3.108 3.78l-15.036 7.215-.302 8.232 13.608 4.133a5.812 5.812 0 013.83 3.713c1.344 4.032 2.42 7.006 3.192 8.87a83.889 83.889 0 003.394 6.947 5.715 5.715 0 01.16 5.091l-6.309 13.759 5.973 5.611 14.968-6.401a5.911 5.911 0 015.066.202c3.066 1.613 5.35 2.73 6.795 3.343 1.47.613 4.284 1.638 8.366 3.032a5.819 5.819 0 013.562 3.444l5.947 15.717 7.779-.168 5.014-13.894a5.811 5.811 0 013.436-3.469l8.71-3.259c2.202-.815 4.873-2.1 7.99-3.864a5.903 5.903 0 015.66-.067l13.248 7.014 7.45-6.645-6.518-14.389a5.72 5.72 0 01-.008-4.704c1.528-3.419 2.562-5.998 3.082-7.644.513-1.613 1.042-3.94 1.555-6.93a5.796 5.796 0 013.788-4.477l13.843-4.914.605-9.576-13.608-5.83a5.813 5.813 0 01-3.167-3.31 128.89 128.89 0 00-3.175-7.929 92.502 92.502 0 00-3.528-6.67 5.729 5.729 0 01-.294-5.09l6.09-14.28-6.418-6.636-12.499 6.62a5.906 5.906 0 01-5.317.108A94.89 94.89 0 004.01 32.76a60.359 60.359 0 00-7.2-1.932 5.83 5.83 0 01-4.266-3.704l-5.612-15.566.009.009zm-4.738 35.817c20.454 0 37.044 16.406 37.044 36.633 0 20.227-16.59 36.624-37.044 36.624-20.462 0-37.044-16.397-37.044-36.624 0-20.227 16.582-36.624 37.044-36.624v-.009zm0 11.576c-14.002 0-25.35 11.214-25.35 25.057 0 13.843 11.348 25.065 25.35 25.065 13.995 0 25.343-11.222 25.343-25.065 0-13.843-11.34-25.057-25.343-25.057z" fill="#67A8D2"/></g><defs><clipPath id="clip0_607_50"><path fill="#fff" transform="translate(-10 144)" d="M0 0h168v168H0z"/></clipPath><clipPath id="clip1_607_50"><path fill="#fff" transform="translate(-102)" d="M0 0h168v168H0z"/></clipPath></defs></svg>