<svg width="240" height="340" fill="none" xmlns="http://www.w3.org/2000/svg"><g opacity=".2" fill="#67A8D2"><path d="M2.472 259.155a21.633 21.633 0 0016.434-15.867c5.1-1.322 10.01-3.022 15.016-4.816v-11.334c.04-1.619.23-3.232.567-4.816a164.748 164.748 0 01-17.189 5.855 21.53 21.53 0 00-22.356-11.593 21.53 21.53 0 00-18.066 17.543h-4.25a112.671 112.671 0 01-27.2-68.661A168.015 168.015 0 01-7.35 120.888a21.056 21.056 0 0021.628 5.289 174.905 174.905 0 0042.217 47.222 25.874 25.874 0 011.983-2.266l8.972-8.595a159.612 159.612 0 01-41.083-45.239 21.437 21.437 0 003.305-11.333v-2.078a167.075 167.075 0 01106.439 0 165.128 165.128 0 01-10.861 31.545h16.528a179.384 179.384 0 008.594-25.689c4.061 1.794 7.934 3.872 11.9 6.044a112.754 112.754 0 019.445 38.628 26.16 26.16 0 0111.616-3.306 25.8 25.8 0 016.423.945 132.219 132.219 0 00-85.988-115.347 132.224 132.224 0 00-175.54 97.716A132.223 132.223 0 0051.867 292.777a25.69 25.69 0 010-18.889 112.665 112.665 0 01-49.395-14.733zM58.29 47.222a113.334 113.334 0 0181.317 34.566c0 2.361 0 4.817-.756 7.178a181.428 181.428 0 00-116.639 1.039 21.534 21.534 0 00-11.333-5.006 160.562 160.562 0 01-5.761-23.894A112.578 112.578 0 0158.29 47.222zM-8.767 69.51a176.797 176.797 0 004.628 18.134 21.535 21.535 0 00-10.105 18.228v1.416a183.688 183.688 0 00-38.534 32.395A113.334 113.334 0 01-8.767 69.511z"/><path d="M136.111 200.128a36.26 36.26 0 00-33.261 22.714 36.265 36.265 0 0047.8 46.938 36.268 36.268 0 0022.105-33.669 36.547 36.547 0 00-36.644-35.983zm0 57.422a21.16 21.16 0 01-19.246-13.254 21.158 21.158 0 014.699-22.89 21.153 21.153 0 0122.911-4.599 21.151 21.151 0 0113.169 19.304 21.334 21.334 0 01-6.284 15.221 21.354 21.354 0 01-15.249 6.218z"/><path d="M222.717 227.989a10.77 10.77 0 00-6.611-10.389l-14.734-4.345a53.786 53.786 0 00-2.455-5.95l6.8-12.561a10.77 10.77 0 00-1.984-12.655l-12.655-12.467a10.768 10.768 0 00-12.656-1.889l-12.655 6.706a68.63 68.63 0 00-6.328-2.645L155 157.816a10.765 10.765 0 00-10.2-7.177h-18.133a10.762 10.762 0 00-10.2 7.555l-4.156 13.506a69.137 69.137 0 00-6.422 2.644l-12.467-6.611a10.768 10.768 0 00-12.561 1.794L67.922 181.9a10.762 10.762 0 00-1.983 12.75l6.61 12.089a58.147 58.147 0 00-2.644 6.138l-13.316 4.345a10.67 10.67 0 00-7.65 10.294v17.661A10.764 10.764 0 0056.683 255l13.884 4.155a62.94 62.94 0 002.644 6.045l-6.8 12.75A10.766 10.766 0 0068.3 290.7l12.656 12.466a10.768 10.768 0 0012.655 1.889l12.939-6.8c1.952.882 3.935 1.7 5.95 2.456l4.155 13.883a10.771 10.771 0 0010.295 7.556h17.944a10.762 10.762 0 006.276-2.143 10.761 10.761 0 003.83-5.413l4.156-13.883c1.983-.661 3.966-1.511 5.855-2.361l13.033 6.894a10.763 10.763 0 0012.561-1.889l12.656-12.466a10.762 10.762 0 001.983-12.75l-6.894-12.656a72.42 72.42 0 002.361-5.667l14.167-4.155a10.672 10.672 0 007.839-10.106v-17.566zm-15.112 14.166l-18.888 5.478-1.134 3.967a52.384 52.384 0 01-4.25 10.294l-1.983 3.589 9.444 16.906-8.122 7.933-17.189-9.445-3.494 1.889a54.575 54.575 0 01-10.578 4.345l-3.967 1.133-5.572 18.889h-11.617l-5.572-18.417-3.966-1.133a55.372 55.372 0 01-10.673-4.25l-3.494-1.889-17.094 9.445-8.123-8.028 9.445-17.189-2.078-3.589a52.87 52.87 0 01-4.628-10.672l-1.228-3.872-18.416-5.478v-11.428l18.322-5.478 1.133-3.872a52.232 52.232 0 014.628-10.767l2.078-3.683-9.445-16.339 8.217-7.933 16.717 8.878 3.589-1.984a54.762 54.762 0 0111.05-4.628l3.872-1.133 5.572-18.039h11.617l5.478 17.945 3.872 1.133a54.734 54.734 0 0110.955 4.533l3.589 1.984 17-8.973 8.122 8.028-9.444 16.717 1.983 3.589a52.198 52.198 0 014.439 10.672l1.134 3.967 18.227 5.383.472 11.522z"/></g></svg>