<svg width="143" height="89" fill="none" xmlns="http://www.w3.org/2000/svg"><path d="M0 55.533l8.24 27.355c.33 1.136 1.867 3.384 5.383 3.296 3.735 0 4.614-3.186 5.713-5.053.879-1.494 6.079-10.95 8.57-15.49 3.295 5.639 9.93 16.984 10.107 17.247.22.33 1.428 3.296 5.273 3.296 3.805 0 4.813-3.227 5.366-4.998l.017-.055c.312-.998 2.633-9.465 4.727-17.139.857-3.142 1.677-6.15 2.304-8.46h-6.262c-.952-.036-2.988.396-3.515 2.418-.528 2.021-2.93 11.828-4.065 16.48l-8.68-16.48c-.585-1.062-2.46-3.164-5.273-3.077-2.812.088-4.54 2.088-5.054 3.077l-8.679 16.48-4.394-16.48c-.11-.806-.989-2.417-3.626-2.417H0z" fill="#FA6232"/><path d="M82.397 55.533H55.7c-.627 2.308-1.447 5.317-2.304 8.46 1.057-.88 4.32-.806 5.82-.66h13.623c2.549 0 4.797-1.831 5.603-2.747l3.955-5.053z" fill="#FA6232"/><path d="M53.613 67.178c.073.22 1.274.66 5.493.66h14.832c2.82.036 8.525 1.208 8.789 5.602.33 5.493.11 11.426-7.8 11.756-6.329.263-21.094.402-27.686.439.66-.366 2.22-2.395 3.186-7.58H72.18c.696-.147 2.087-.77 2.087-2.088 0-1.648-1.538-2.197-2.087-2.197H56.799c-1.392.073-4.35.11-5.054-.33.088 0 1.282-4.174 1.868-6.262zm42.256 6.124v11.232H93.7V79.74h-5.094v4.794h-2.183V73.3h2.183v4.54H93.7V73.3h2.168zm5.827 11.39c-.907 0-1.688-.195-2.342-.585a4.118 4.118 0 01-1.487-1.582 4.443 4.443 0 01-.522-2.12c0-.77.174-1.482.522-2.136a4.12 4.12 0 011.503-1.566c.654-.4 1.429-.601 2.326-.601.896 0 1.666.2 2.31.6a3.99 3.99 0 011.503 1.567c.348.654.522 1.366.522 2.136 0 .76-.174 1.466-.522 2.12a4.095 4.095 0 01-1.503 1.582c-.644.39-1.414.585-2.31.585zm-2.168-4.287c0 .485.095.917.285 1.297.19.37.448.66.775.87.327.211.697.317 1.108.317a1.97 1.97 0 001.091-.317c.327-.221.586-.517.776-.886.2-.38.3-.812.3-1.297 0-.475-.1-.896-.3-1.266a2.198 2.198 0 00-.776-.886 1.9 1.9 0 00-1.091-.332c-.411 0-.781.11-1.108.332a2.194 2.194 0 00-.775.886c-.19.37-.285.797-.285 1.282zm10.987 4.287a5.918 5.918 0 01-2.025-.348 4.546 4.546 0 01-1.661-1.028l.759-1.377c.496.401.981.696 1.455.886.475.19.939.285 1.393.285.411 0 .738-.074.981-.221a.72.72 0 00.379-.665c0-.306-.153-.511-.459-.617a22.203 22.203 0 00-1.281-.427 11.034 11.034 0 01-1.535-.585c-.411-.2-.722-.443-.933-.728-.2-.285-.301-.654-.301-1.108 0-.812.306-1.46.918-1.945.612-.486 1.424-.728 2.436-.728.591 0 1.15.095 1.677.285a3.884 3.884 0 011.44.886l-.854 1.344c-.812-.632-1.598-.949-2.358-.949-.337 0-.638.063-.901.19-.253.127-.38.348-.38.664 0 .296.121.507.364.633.253.127.633.264 1.139.412.654.2 1.207.395 1.661.585.464.19.812.432 1.044.728.243.295.364.696.364 1.202 0 .823-.301 1.466-.902 1.93-.601.464-1.408.696-2.42.696zm9.685-.585a9.07 9.07 0 01-1.06.38c-.411.126-.838.19-1.281.19-.391 0-.749-.07-1.076-.206a1.757 1.757 0 01-.791-.649c-.19-.306-.285-.701-.285-1.187v-4.761h-1.091v-1.63h1.091v-2.69h2.12v2.69h1.74v1.63h-1.74v4.05c0 .284.074.49.222.616a.88.88 0 00.569.19c.222 0 .438-.037.649-.11a9.85 9.85 0 00.506-.19l.427 1.677zm1.104-9.017v-2.105h2.12v2.104h-2.12zm0 9.444v-8.29h2.12v8.29h-2.12zm11.737 0h-2.12v-4.651c0-.665-.116-1.15-.348-1.456-.232-.306-.554-.459-.965-.459a1.93 1.93 0 00-.87.222 2.663 2.663 0 00-.775.617 2.324 2.324 0 00-.507.886v4.84h-2.12v-8.289h1.915v1.535c.306-.517.749-.923 1.329-1.218.58-.306 1.234-.46 1.961-.46.517 0 .939.096 1.266.285.327.18.58.428.759.744.18.306.301.654.364 1.044.074.39.111.786.111 1.187v5.173zm5.086.047c-.738 0-1.387-.19-1.946-.57a3.919 3.919 0 01-1.313-1.518 4.708 4.708 0 01-.474-2.104c0-.802.163-1.524.49-2.167a3.892 3.892 0 011.361-1.55c.58-.38 1.25-.57 2.009-.57.643 0 1.208.147 1.693.443.485.284.886.67 1.202 1.154v-1.455H143v7.894c0 .823-.2 1.524-.601 2.105-.39.59-.934 1.038-1.63 1.344-.696.317-1.487.475-2.373.475-.907 0-1.671-.153-2.294-.459a4.578 4.578 0 01-1.582-1.266l1.155-1.123c.317.39.712.696 1.187.918a3.65 3.65 0 001.534.332 2.89 2.89 0 001.218-.253c.38-.158.686-.412.918-.76.232-.337.348-.775.348-1.313v-1.044a2.821 2.821 0 01-1.171 1.108 3.428 3.428 0 01-1.582.38zm.712-1.692c.464 0 .881-.138 1.25-.412.38-.274.643-.6.791-.98v-1.978a2.55 2.55 0 00-.902-1.17c-.4-.296-.822-.444-1.265-.444-.433 0-.812.121-1.139.364a2.463 2.463 0 00-.744.95 2.85 2.85 0 00-.269 1.233c0 .454.1.865.301 1.234.2.37.469.665.807.886.348.211.738.317 1.17.317z" fill="#fff"/><path d="M42.846 21.912c1.1-.11 5.054-.44 10.108 6.482 5.053 6.921 4.175 13.623 12.744 15.38-3.186 2.125-10.789 4.198-15.71-4.504-6.153-10.876-7.343-12.744-14.328-12.304 1.96-4.315 6.351-4.97 7.186-5.054zm7.141-6.262c2.747-4.285 10.57-9.536 19.886 3.735 4.704 6.702 7.8 18.567 17.578 24.39-.22 0-9.778 7.14-17.578-5.274-7.8-12.414-9.339-25.158-19.886-22.851zM62.512 4.334c2.636-2.6 9.36-6.745 15.16-2.527 7.252 5.274 14.722 23.291 17.47 26.587 2.746 3.296 6.701 9.338 12.304 10.107.11 0-3.736 9.888-12.305 2.198-8.57-7.69-13.074-17.908-14.282-20.105-1.209-2.197-8.79-18.897-18.347-16.26zM84.265.928c5.236.22 15.776 3.758 16.04 16.15-.11-.11-2.637-1.758-6.372-.55.11.11.878-11.754-9.668-15.6z" fill="#FA6232"/><path d="M43.286 44.654c-2.783-1.099-8.394-5.12-8.57-12.415-.256-1.464.462-4.174 5.384-3.296 0 .33-4.285 6.482 3.186 15.71zm5.054-23.511c.183-1.83 1.845-4.944 7.03-2.746-.219 0-1.87 2.087-1.427 7.14-.99-1.208-3.494-3.779-5.603-4.394zM59.326 9.058c.952-1.83 4.328-4.724 10.217-1.648-.22.22-2.527 1.648-3.186 4.944-.769-.915-3.252-2.856-7.031-3.296zm36.804 9.339c5.566.695 15.688 5.207 11.645 17.688 0-.11-2.087.659-6.042-3.516 0-.11 4.285-6.482-5.603-14.172z" fill="#fff"/></svg>