<svg width="41" height="41" fill="none" xmlns="http://www.w3.org/2000/svg"><path d="M0 21.702h15.736a3 3 0 013 3V38a3 3 0 01-3 3H3a3 3 0 01-3-3V21.702zM14.615.155C2.848 1.953-.031 15.269 0 21.702h11.336c.187-4.872.937-7.214 2.154-8.9 1.218-1.686 2.81-1.874 4.029-1.967.974-.075 1.28-1.031 1.311-1.5V1.467c0-.899-.874-1.311-1.311-1.405-.562-.062-1.93-.131-2.904.094zm7.307 21.547h15.736a3 3 0 013 3V38a3 3 0 01-3 3H24.922a3 3 0 01-3-3V21.702zM36.536.155C24.77 1.953 21.891 15.269 21.922 21.702h11.335c.188-4.872.937-7.214 2.155-8.9 1.218-1.686 2.81-1.874 4.029-1.967.974-.075 1.28-1.031 1.311-1.5V1.467c0-.899-.874-1.311-1.312-1.405-.562-.062-1.93-.131-2.904.094z" fill="#67A8D2"/></svg>